<?xml version="1.0" encoding="UTF-8" standalone="no"?>
<!-- Created with Inkscape (http://www.inkscape.org/) -->

<svg
   version="1.1"
   id="svg2"
   width="170.66667"
   height="170.66667"
   viewBox="0 0 170.66667 170.66667"
   sodipodi:docname="logo.pdf"
   xmlns:inkscape="http://www.inkscape.org/namespaces/inkscape"
   xmlns:sodipodi="http://sodipodi.sourceforge.net/DTD/sodipodi-0.dtd"
   xmlns="http://www.w3.org/2000/svg"
   xmlns:svg="http://www.w3.org/2000/svg">
  <defs
     id="defs6">
    <clipPath
       clipPathUnits="userSpaceOnUse"
       id="clipPath18">
      <path
         d="M 0,0 H 128 V 128 H 0 Z"
         id="path16" />
    </clipPath>
  </defs>
  <sodipodi:namedview
     id="namedview4"
     pagecolor="#ffffff"
     bordercolor="#999999"
     borderopacity="1"
     inkscape:showpageshadow="0"
     inkscape:pageopacity="0"
     inkscape:pagecheckerboard="0"
     inkscape:deskcolor="#d1d1d1" />
  <g
     id="g8"
     inkscape:groupmode="layer"
     inkscape:label="logo"
     transform="matrix(1.3333333,0,0,-1.3333333,0,170.66667)">
    <g
       id="g10" />
    <g
       id="g12">
      <g
         id="g14"
         clip-path="url(#clipPath18)">
        <path
           d="M 87.99998,80 H 72 L 60.68629,68.68629 87.99998,32.00002 115.3137,68.68629 104,79.99998 Z"
           style="fill:#f93635;fill-opacity:1;fill-rule:nonzero;stroke:none"
           id="path20" />
        <g
           id="g22"
           transform="matrix(1,0,0,-1,0,128)">
          <path
             d="M 87.99998,48 H 72 L 60.68629,59.31371 87.99998,95.99998 115.3137,59.31371 104,48.00002 Z"
             style="fill:none;stroke:#ca2b2b;stroke-width:8;stroke-linecap:round;stroke-linejoin:round;stroke-miterlimit:10;stroke-dasharray:none;stroke-opacity:1"
             id="path24" />
        </g>
        <path
           d="M 32,48.00001 H 21.33333 L 13.79086,40.4575 32,15.99996 50.20914,40.4575 42.66668,48.00001 Z"
           style="fill:#f93635;fill-opacity:1;fill-rule:nonzero;stroke:none"
           id="path26" />
        <g
           id="g28"
           transform="matrix(1,0,0,-1,0,128)">
          <path
             d="M 32,79.99999 H 21.33333 L 13.79086,87.5425 32,112 50.20914,87.5425 42.66668,79.99999 Z"
             style="fill:none;stroke:#ca2b2b;stroke-width:8;stroke-linecap:round;stroke-linejoin:round;stroke-miterlimit:10;stroke-dasharray:none;stroke-opacity:1"
             id="path30" />
        </g>
        <path
           d="M 40,112 H 29.33334 L 21.79087,104.4575 40,80 58.20915,104.4575 50.66668,112 Z"
           style="fill:#f93635;fill-opacity:1;fill-rule:nonzero;stroke:none"
           id="path32" />
        <g
           id="g34"
           transform="matrix(1,0,0,-1,0,128)">
          <path
             d="M 40,16.00001 H 29.33334 L 21.79087,23.54247 40,48 58.20915,23.54248 50.66668,16.00001 Z"
             style="fill:none;stroke:#ca2b2b;stroke-width:8;stroke-linecap:round;stroke-linejoin:round;stroke-miterlimit:10;stroke-dasharray:none;stroke-opacity:1"
             id="path36" />
        </g>
      </g>
    </g>
  </g>
</svg>
