<?xml version="1.0" encoding="UTF-8" standalone="no"?>
<!-- Created with Inkscape (http://www.inkscape.org/) -->

<svg
   version="1.1"
   id="svg2"
   width="170.66667"
   height="170.66667"
   viewBox="0 0 170.66667 170.66667"
   sodipodi:docname="logo.pdf"
   xmlns:inkscape="http://www.inkscape.org/namespaces/inkscape"
   xmlns:sodipodi="http://sodipodi.sourceforge.net/DTD/sodipodi-0.dtd"
   xmlns="http://www.w3.org/2000/svg"
   xmlns:svg="http://www.w3.org/2000/svg">
  <defs
     id="defs6">
    <clipPath
       clipPathUnits="userSpaceOnUse"
       id="clipPath18">
      <path
         d="M 0,0 H 128 V 128 H 0 Z"
         id="path16" />
    </clipPath>
  </defs>
  <sodipodi:namedview
     id="namedview4"
     pagecolor="#ffffff"
     bordercolor="#999999"
     borderopacity="1"
     inkscape:showpageshadow="0"
     inkscape:pageopacity="0"
     inkscape:pagecheckerboard="0"
     inkscape:deskcolor="#d1d1d1" />
  <g
     id="g8"
     inkscape:groupmode="layer"
     inkscape:label="logo"
     transform="matrix(1.3333333,0,0,-1.3333333,0,170.66667)">
    <g
       id="g10" />
    <g
       id="g12">
      <g
         id="g14"
         clip-path="url(#clipPath18)">
        <path
           d="m 72,80 -11.99997,-11.99998 28.00003,-28 L 116,68 104,80 H 71.99999 Z"
           style="fill:#f93635;fill-opacity:1;fill-rule:nonzero;stroke:none"
           id="path20" />
        <g
           id="g22"
           transform="matrix(1,0,0,-1,0,128)">
          <path
             d="m 72,48 -11.99997,11.99998 28.00003,28 L 116,60 104,48 H 71.99999 Z"
             style="fill:none;stroke:#ca2b2b;stroke-width:8;stroke-linecap:round;stroke-linejoin:round;stroke-miterlimit:10;stroke-dasharray:none;stroke-opacity:1"
             id="path24" />
        </g>
        <path
           d="M 22.28568,50.28572 12,40.00002 36.00001,16.00004 59.99996,40.00002 49.71424,50.28572 Z"
           style="fill:#f93635;fill-opacity:1;fill-rule:nonzero;stroke:none"
           id="path26" />
        <g
           id="g28"
           transform="matrix(1,0,0,-1,0,128)">
          <path
             d="M 22.28568,77.71428 12,87.99998 36.00001,112 59.99996,87.99998 49.71424,77.71428 Z"
             style="fill:none;stroke:#ca2b2b;stroke-width:8;stroke-linecap:round;stroke-linejoin:round;stroke-miterlimit:10;stroke-dasharray:none;stroke-opacity:1"
             id="path30" />
        </g>
        <path
           d="M 28.57139,104.5714 19.99999,95.99998 40,76 59.99995,95.99997 51.42852,104.5714 Z"
           style="fill:#f93635;fill-opacity:1;fill-rule:nonzero;stroke:none"
           id="path32" />
        <g
           id="g34"
           transform="matrix(1,0,0,-1,0,128)">
          <path
             d="M 28.57139,23.42861 19.99999,32.00002 40,52 59.99995,32.00003 51.42852,23.42861 Z"
             style="fill:none;stroke:#ca2b2b;stroke-width:8;stroke-linecap:round;stroke-linejoin:round;stroke-miterlimit:10;stroke-dasharray:none;stroke-opacity:1"
             id="path36" />
        </g>
      </g>
    </g>
  </g>
</svg>
